<svg xmlns="http://www.w3.org/2000/svg" viewBox="0 0 900 720">
  <rect width="900" height="720" fill="#0f0f1a"/>

  <!-- Title -->
  <text x="450" y="42" text-anchor="middle" font-family="Arial Black,sans-serif" font-size="26" font-weight="900" fill="#ffffff">AI Agent 工具 Tier List</text>
  <text x="450" y="66" text-anchor="middle" font-family="Arial,sans-serif" font-size="13" fill="#8888aa">2026 · 主流工具全景图</text>
  <line x1="40" y1="80" x2="860" y2="80" stroke="#333355" stroke-width="1"/>

  <!-- ========== T0 ========== -->
  <rect x="40" y="92" width="80" height="52" rx="8" fill="#FFD700"/>
  <text x="80" y="116" text-anchor="middle" font-family="Arial Black,sans-serif" font-size="18" font-weight="900" fill="#1a1a1a">🏆 T0</text>
  <text x="80" y="136" text-anchor="middle" font-family="Arial,sans-serif" font-size="9" fill="#1a1a1a">生态定义者</text>

  <rect x="140" y="92" width="355" height="52" rx="8" fill="#1e1e3f" stroke="#FFD700" stroke-width="2"/>
  <text x="158" y="114" font-family="Arial Black,sans-serif" font-size="13" fill="#FFD700">⚡ MCP</text>
  <text x="158" y="132" font-family="Arial,sans-serif" font-size="10" fill="#aaaacc">Model Context Protocol · Anthropic · 97M+ 下载</text>
  <text x="158" y="138" font-family="Arial,sans-serif" font-size="9" fill="#777799">AI界的USB协议 · 所有工具互联互通的基础</text>

  <rect x="510" y="92" width="355" height="52" rx="8" fill="#1e1e3f" stroke="#FFD700" stroke-width="2"/>
  <text x="528" y="114" font-family="Arial Black,sans-serif" font-size="13" fill="#FFD700">🦅 OpenClaw</text>
  <text x="528" y="132" font-family="Arial,sans-serif" font-size="10" fill="#aaaacc">~100k Stars · 200+ Skills · 中文平台最强</text>
  <text x="528" y="138" font-family="Arial,sans-serif" font-size="9" fill="#777799">框架层 · Bolt老大当前使用的核心框架</text>

  <!-- ========== T1 ========== -->
  <rect x="40" y="156" width="80" height="52" rx="8" fill="#00ccff"/>
  <text x="80" y="180" text-anchor="middle" font-family="Arial Black,sans-serif" font-size="18" font-weight="900" fill="#1a1a1a">⚡ T1</text>
  <text x="80" y="200" text-anchor="middle" font-family="Arial,sans-serif" font-size="9" fill="#1a1a1a">必备工具</text>

  <rect x="140" y="156" width="355" height="52" rx="8" fill="#1e1e3f" stroke="#00ccff" stroke-width="2"/>
  <text x="158" y="178" font-family="Arial Black,sans-serif" font-size="13" fill="#00ccff">🤖 Hermes</text>
  <text x="158" y="196" font-family="Arial Black,sans-serif" font-size="10" fill="#00ccff">本系统 · 专属AI大脑 · Wiki记忆 + TTS + cron</text>
  <text x="158" y="202" font-family="Arial,sans-serif" font-size="9" fill="#777799">住在脑子里的军师 · 24小时替你盯着世界</text>

  <rect x="510" y="156" width="355" height="52" rx="8" fill="#1e1e3f" stroke="#00ccff" stroke-width="1.5"/>
  <text x="528" y="178" font-family="Arial Black,sans-serif" font-size="13" fill="#aaaacc">🗡️ Claude Code</text>
  <text x="528" y="196" font-family="Arial,sans-serif" font-size="10" fill="#aaaacc">终端剑术大师 · Opus模型推理最强 · $20/月</text>
  <text x="528" y="202" font-family="Arial,sans-serif" font-size="9" fill="#555577">CLI原生 · 复杂任务自动化</text>

  <!-- n8n row -->
  <rect x="140" y="218" width="355" height="40" rx="8" fill="#1e1e3f" stroke="#00ccff" stroke-width="1.5"/>
  <text x="158" y="240" font-family="Arial Black,sans-serif" font-size="12" fill="#aaaacc">🏗️ n8n</text>
  <text x="222" y="240" font-family="Arial,sans-serif" font-size="10" fill="#aaaacc">免费自托管 · 400+节点 · 工作流自动化首选</text>

  <rect x="510" y="218" width="355" height="40" rx="8" fill="#0f0f1a"/>
  <text x="528" y="240" font-family="Arial,sans-serif" font-size="10" fill="#444466">↳ n8n = 免费Zapier + 更强AI + 无限执行量</text>

  <!-- ========== T2 ========== -->
  <rect x="40" y="272" width="80" height="44" rx="8" fill="#00cc66"/>
  <text x="80" y="292" text-anchor="middle" font-family="Arial Black,sans-serif" font-size="18" font-weight="900" fill="#1a1a1a">💪 T2</text>
  <text x="80" y="308" text-anchor="middle" font-family="Arial,sans-serif" font-size="9" fill="#1a1a1a">强力备选</text>

  <rect x="140" y="272" width="162" height="44" rx="8" fill="#1e1e3f" stroke="#00cc66" stroke-width="1.5"/>
  <text x="155" y="292" font-family="Arial Black,sans-serif" font-size="12" fill="#00cc66">🎨 Cursor</text>
  <text x="155" y="308" font-family="Arial,sans-serif" font-size="9" fill="#aaaacc">AI编辑器 · $20/月</text>

  <rect x="316" y="272" width="162" height="44" rx="8" fill="#1e1e3f" stroke="#00cc66" stroke-width="1.5"/>
  <text x="331" y="292" font-family="Arial Black,sans-serif" font-size="12" fill="#00cc66">👥 CrewAI</text>
  <text x="331" y="308" font-family="Arial,sans-serif" font-size="9" fill="#aaaacc">多角色Agent编排</text>

  <rect x="492" y="272" width="162" height="44" rx="8" fill="#1e1e3f" stroke="#00cc66" stroke-width="1.5"/>
  <text x="507" y="292" font-family="Arial Black,sans-serif" font-size="12" fill="#00cc66">🦊 Copilot</text>
  <text x="507" y="308" font-family="Arial,sans-serif" font-size="9" fill="#aaaacc">VS Code集成 · $10/月</text>

  <!-- ========== T3 ========== -->
  <rect x="40" y="330" width="80" height="44" rx="8" fill="#ff9900"/>
  <text x="80" y="350" text-anchor="middle" font-family="Arial Black,sans-serif" font-size="18" font-weight="900" fill="#1a1a1a">📚 T3</text>
  <text x="80" y="366" text-anchor="middle" font-family="Arial,sans-serif" font-size="9" fill="#1a1a1a">值得知晓</text>

  <rect x="140" y="330" width="148" height="44" rx="8" fill="#1e1e3f" stroke="#ff9900" stroke-width="1"/>
  <text x="155" y="350" font-family="Arial Black,sans-serif" font-size="11" fill="#ff9900">🌊 Windsurf</text>
  <text x="155" y="366" font-family="Arial,sans-serif" font-size="9" fill="#aaaacc">免费友好</text>

  <rect x="302" y="330" width="148" height="44" rx="8" fill="#1e1e3f" stroke="#ff9900" stroke-width="1"/>
  <text x="317" y="350" font-family="Arial Black,sans-serif" font-size="11" fill="#ff9900">🔬 AutoGen</text>
  <text x="317" y="366" font-family="Arial,sans-serif" font-size="9" fill="#aaaacc">微软·对话式</text>

  <rect x="464" y="330" width="148" height="44" rx="8" fill="#1e1e3f" stroke="#ff9900" stroke-width="1"/>
  <text x="479" y="350" font-family="Arial Black,sans-serif" font-size="11" fill="#ff9900">🕸️ LangGraph</text>
  <text x="479" y="366" font-family="Arial,sans-serif" font-size="9" fill="#aaaacc">生产级Pipeline</text>

  <rect x="626" y="330" width="234" height="44" rx="8" fill="#1e1e3f" stroke="#ff9900" stroke-width="1"/>
  <text x="641" y="350" font-family="Arial Black,sans-serif" font-size="11" fill="#ff9900">🔄 Codex CLI</text>
  <text x="641" y="366" font-family="Arial,sans-serif" font-size="9" fill="#aaaacc">OpenAI · GPT-5加持</text>

  <!-- ========== T4 ========== -->
  <rect x="40" y="388" width="80" height="44" rx="8" fill="#cc44ff"/>
  <text x="80" y="408" text-anchor="middle" font-family="Arial Black,sans-serif" font-size="18" font-weight="900" fill="#1a1a1a">🧪 T4</text>
  <text x="80" y="424" text-anchor="middle" font-family="Arial,sans-serif" font-size="9" fill="#1a1a1a">实验探索</text>

  <rect x="140" y="388" width="112" height="44" rx="8" fill="#1e1e3f" stroke="#cc44ff" stroke-width="1"/>
  <text x="155" y="408" font-family="Arial Black,sans-serif" font-size="10" fill="#cc44ff">📡 A2A</text>
  <text x="155" y="424" font-family="Arial,sans-serif" font-size="8" fill="#aaaacc">Google协议</text>

  <rect x="266" y="388" width="112" height="44" rx="8" fill="#1e1e3f" stroke="#cc44ff" stroke-width="1"/>
  <text x="281" y="408" font-family="Arial Black,sans-serif" font-size="10" fill="#cc44ff">🤖 Devin</text>
  <text x="281" y="424" font-family="Arial,sans-serif" font-size="8" fill="#aaaacc">端到端编程</text>

  <rect x="392" y="388" width="112" height="44" rx="8" fill="#1e1e3f" stroke="#cc44ff" stroke-width="1"/>
  <text x="407" y="408" font-family="Arial Black,sans-serif" font-size="10" fill="#cc44ff">🚀 Antigravity</text>
  <text x="407" y="424" font-family="Arial,sans-serif" font-size="8" fill="#aaaacc">Google 2026</text>

  <rect x="518" y="388" width="112" height="44" rx="8" fill="#1e1e3f" stroke="#cc44ff" stroke-width="1"/>
  <text x="533" y="408" font-family="Arial Black,sans-serif" font-size="10" fill="#cc44ff">🔱 Grok</text>
  <text x="533" y="424" font-family="Arial,sans-serif" font-size="8" fill="#aaaacc">xAI·8并行agent</text>

  <rect x="644" y="388" width="112" height="44" rx="8" fill="#1e1e3f" stroke="#cc44ff" stroke-width="1"/>
  <text x="659" y="408" font-family="Arial Black,sans-serif" font-size="10" fill="#cc44ff">⚡ Zapier</text>
  <text x="659" y="424" font-family="Arial,sans-serif" font-size="8" fill="#aaaacc">零代码自动化</text>

  <!-- ========== Section divider ========== -->
  <line x1="40" y1="450" x2="860" y2="450" stroke="#333355" stroke-width="1"/>
  <text x="450" y="472" text-anchor="middle" font-family="Arial Black,sans-serif" font-size="16" font-weight="900" fill="#ffffff">🎯 速查选型指南</text>

  <!-- Guide row 1 -->
  <rect x="40" y="482" width="205" height="62" rx="10" fill="#1a1a3a" stroke="#FFD700" stroke-width="1.5"/>
  <text x="58" y="502" font-family="Arial Black,sans-serif" font-size="11" fill="#FFD700">🏆 统一工具标准</text>
  <text x="58" y="518" font-family="Arial,sans-serif" font-size="10" fill="#aaaacc">→ MCP</text>
  <text x="58" y="534" font-family="Arial,sans-serif" font-size="9" fill="#777799">所有工具互联互通的基础</text>

  <rect x="260" y="482" width="205" height="62" rx="10" fill="#1a1a3a" stroke="#FFD700" stroke-width="1.5"/>
  <text x="278" y="502" font-family="Arial Black,sans-serif" font-size="11" fill="#FFD700">🦅 中文助手框架</text>
  <text x="278" y="518" font-family="Arial,sans-serif" font-size="10" fill="#aaaacc">→ OpenClaw</text>
  <text x="278" y="534" font-family="Arial,sans-serif" font-size="9" fill="#777799">微信/QQ/Telegram全平台连接</text>

  <rect x="480" y="482" width="205" height="62" rx="10" fill="#1a1a3a" stroke="#00ccff" stroke-width="1.5"/>
  <text x="498" y="502" font-family="Arial Black,sans-serif" font-size="11" fill="#00ccff">🤖 专属AI大脑</text>
  <text x="498" y="518" font-family="Arial,sans-serif" font-size="10" fill="#aaaacc">→ Hermes（本系统）</text>
  <text x="498" y="534" font-family="Arial,sans-serif" font-size="9" fill="#777799">Wiki记忆·TTS·cron·住在脑子里的军师</text>

  <rect x="700" y="482" width="160" height="62" rx="10" fill="#1a1a3a" stroke="#00ccff" stroke-width="1.5"/>
  <text x="718" y="502" font-family="Arial Black,sans-serif" font-size="11" fill="#aaaacc">🗡️ 终端编程</text>
  <text x="718" y="518" font-family="Arial,sans-serif" font-size="10" fill="#aaaacc">→ Claude Code</text>
  <text x="718" y="534" font-family="Arial,sans-serif" font-size="9" fill="#777799">复杂推理+自动化</text>

  <!-- Guide row 2 -->
  <rect x="40" y="556" width="205" height="62" rx="10" fill="#1a1a3a" stroke="#00cc66" stroke-width="1.5"/>
  <text x="58" y="576" font-family="Arial Black,sans-serif" font-size="11" fill="#00cc66">🏗️ 自动化省钱</text>
  <text x="58" y="592" font-family="Arial,sans-serif" font-size="10" fill="#aaaacc">→ n8n</text>
  <text x="58" y="608" font-family="Arial,sans-serif" font-size="9" fill="#777799">免费自托管·400+节点</text>

  <rect x="260" y="556" width="205" height="62" rx="10" fill="#1a1a3a" stroke="#00cc66" stroke-width="1.5"/>
  <text x="278" y="576" font-family="Arial Black,sans-serif" font-size="11" fill="#00cc66">🎨 IDE多文件编辑</text>
  <text x="278" y="592" font-family="Arial,sans-serif" font-size="10" fill="#aaaacc">→ Cursor</text>
  <text x="278" y="608" font-family="Arial,sans-serif" font-size="9" fill="#777799">Composer模式·多文件丝滑</text>

  <rect x="480" y="556" width="205" height="62" rx="10" fill="#1a1a3a" stroke="#00cc66" stroke-width="1.5"/>
  <text x="498" y="576" font-family="Arial Black,sans-serif" font-size="11" fill="#00cc66">👥 多角色Agent</text>
  <text x="498" y="592" font-family="Arial,sans-serif" font-size="10" fill="#aaaacc">→ CrewAI</text>
  <text x="498" y="608" font-family="Arial,sans-serif" font-size="9" fill="#777799">5分钟搭研究员+分析师+作家</text>

  <rect x="700" y="556" width="160" height="62" rx="10" fill="#1a1a3a" stroke="#00cc66" stroke-width="1.5"/>
  <text x="718" y="576" font-family="Arial Black,sans-serif" font-size="11" fill="#aaaacc">🦊 企业补全</text>
  <text x="718" y="592" font-family="Arial,sans-serif" font-size="10" fill="#aaaacc">→ Copilot</text>
  <text x="718" y="608" font-family="Arial,sans-serif" font-size="9" fill="#777799">$10/月·VS Code原生</text>

  <!-- Footer -->
  <line x1="40" y1="630" x2="860" y2="630" stroke="#333355" stroke-width="1"/>
  <text x="450" y="648" text-anchor="middle" font-family="Arial,sans-serif" font-size="11" fill="#555577">数据来源：Web Research 2026-04 · Wiki: ~/wiki/projects/ai-agent-ecosystem.md</text>
  <text x="450" y="664" text-anchor="middle" font-family="Arial,sans-serif" font-size="10" fill="#333355">Bolt老大 正在使用：OpenClaw + Hermes + MCP</text>
  <text x="450" y="680" text-anchor="middle" font-family="Arial,sans-serif" font-size="10" fill="#333355">Tier List 基于生态影响力 + 实用价值 + Bolt老大 当前使用场景综合评级</text>
</svg>